    <svg width="1440" height="1024" viewBox="0 0 1440 1024" fill="none" xmlns="http://www.w3.org/2000/svg">
        <rect class="a1" width="1440" height="1024" fill="white"/>
        <rect class="a2" x="120.5" y="344.5" width="544" height="284" rx="9.5" fill="#C4C4C4" stroke="black"/>
        <rect class="a3" x="120.5" y="344.5" width="29" height="284" rx="9.5" fill="#C4C4C4" stroke="black"/>
        <rect class="a4" x="635.5" y="344.5" width="29" height="284" rx="9.5" fill="#C4C4C4" stroke="black"/>
        <rect class="a5" x="179.5" y="347.5" width="426" height="260" fill="#C4C4C4" stroke="black"/>
        <rect class="a6" id="rr" x="179.5" y="526.5" width="426" height="81" fill="#C4C4C4" stroke="black"/>
        <line class="a7" x1="660.5" y1="368.5" x2="817.5" y2="368.5" stroke="black" stroke-width="5" stroke-linecap="round"/>
        <line class="a8" x1="657.5" y1="818.5" x2="813.5" y2="818.5" stroke="black" stroke-width="5" stroke-linecap="round"/>
        <path class="a9" d="M395.601 226.517L594.459 321.681C603.582 326.047 600.472 339.75 590.358 339.75H192.642C182.528 339.75 179.418 326.047 188.541 321.681L387.399 226.517C389.992 225.276 393.008 225.276 395.601 226.517Z" fill="#C4C4C4" stroke="black"/>
        <rect class="a10" x="120.5" y="327.5" width="544" height="75" rx="9.5" fill="#C4C4C4" stroke="black"/>
        <path class="a11" d="M406.683 606.75L392 630.062L377.317 606.75H406.683Z" fill="#C4C4C4" stroke="black"/>
        <rect class="a12" x="380" y="156" width="24" height="473" rx="12" fill="#C4C4C4" stroke="black"/>
        <line class="a14" x1="818.484" y1="370.516" x2="815.555" y2="818.517" stroke="black" stroke-width="5" stroke-linecap="round"/>
        <rect class="a15" x="92.5" y="749.5" width="600" height="142" rx="43.5" fill="#C4C4C4" stroke="black"/>
        <line class="a16" x1="338.632" y1="654.316" x2="369.649" y2="747.366" stroke="black" stroke-linecap="round"/>
        <line class="a17" x1="414.811" y1="747.369" x2="445.819" y2="654.316" stroke="black" stroke-linecap="round"/>
        <line class="a18" x1="369" y1="747.5" x2="415" y2="747.5" stroke="black"/>
        <line class="a19" x1="355.5" y1="701.5" x2="429.5" y2="701.5" stroke="black" stroke-linecap="round"/>
        <rect class="a20" x="693.5" y="781.5" width="23" height="78" rx="2.5" fill="#C4C4C4" stroke="black"/>
        <circle class="a21" cx="391.5" cy="833.5" r="39" fill="#C4C4C4" stroke="black"/>
        <path class="a22" d="M394.093 800.973C393.526 800.369 392.577 800.34 391.973 800.907L382.134 810.15C381.53 810.717 381.5 811.666 382.067 812.27C382.634 812.874 383.584 812.904 384.188 812.336L392.934 804.12L401.15 812.866C401.717 813.47 402.666 813.5 403.27 812.933C403.874 812.366 403.904 811.416 403.336 810.812L394.093 800.973ZM393.499 834.047L394.499 802.047L391.501 801.953L390.501 833.953L393.499 834.047Z" fill="black"/>
        <path class="a23" d="M380.448 787H372.063V785.831L376.493 780.909C377.149 780.165 377.601 779.562 377.847 779.099C378.099 778.63 378.225 778.146 378.225 777.648C378.225 776.98 378.022 776.433 377.618 776.005C377.214 775.577 376.675 775.363 376.001 775.363C375.192 775.363 374.562 775.595 374.111 776.058C373.666 776.515 373.443 777.153 373.443 777.974H371.817C371.817 776.796 372.195 775.844 372.951 775.117C373.713 774.391 374.729 774.027 376.001 774.027C377.19 774.027 378.131 774.341 378.822 774.968C379.514 775.589 379.859 776.418 379.859 777.455C379.859 778.715 379.057 780.215 377.451 781.955L374.023 785.673H380.448V787ZM390.195 781.542C390.195 783.446 389.87 784.861 389.22 785.787C388.569 786.713 387.553 787.176 386.17 787.176C384.805 787.176 383.794 786.725 383.138 785.822C382.481 784.914 382.142 783.561 382.118 781.762V779.591C382.118 777.71 382.443 776.312 383.094 775.398C383.744 774.484 384.764 774.027 386.152 774.027C387.529 774.027 388.543 774.47 389.193 775.354C389.844 776.233 390.178 777.593 390.195 779.433V781.542ZM388.569 779.318C388.569 777.941 388.376 776.939 387.989 776.312C387.603 775.68 386.99 775.363 386.152 775.363C385.32 775.363 384.714 775.677 384.333 776.304C383.952 776.931 383.756 777.895 383.744 779.195V781.797C383.744 783.18 383.943 784.202 384.342 784.864C384.746 785.521 385.355 785.849 386.17 785.849C386.973 785.849 387.567 785.538 387.954 784.917C388.347 784.296 388.552 783.317 388.569 781.981V779.318ZM406.578 782.939C406.42 784.293 405.919 785.339 405.075 786.077C404.237 786.81 403.121 787.176 401.727 787.176C400.215 787.176 399.002 786.634 398.088 785.55C397.18 784.466 396.726 783.016 396.726 781.199V779.969C396.726 778.779 396.937 777.733 397.358 776.831C397.786 775.929 398.39 775.237 399.169 774.757C399.948 774.271 400.851 774.027 401.876 774.027C403.235 774.027 404.325 774.408 405.146 775.17C405.966 775.926 406.443 776.975 406.578 778.316H404.882C404.735 777.297 404.416 776.559 403.924 776.102C403.438 775.645 402.755 775.416 401.876 775.416C400.798 775.416 399.951 775.814 399.336 776.611C398.727 777.408 398.422 778.542 398.422 780.013V781.252C398.422 782.641 398.712 783.745 399.292 784.565C399.872 785.386 400.684 785.796 401.727 785.796C402.664 785.796 403.382 785.585 403.88 785.163C404.384 784.735 404.718 783.994 404.882 782.939H406.578ZM408.547 776.312C408.547 775.703 408.764 775.17 409.197 774.713C409.637 774.256 410.167 774.027 410.788 774.027C411.397 774.027 411.916 774.256 412.344 774.713C412.777 775.164 412.994 775.697 412.994 776.312C412.994 776.934 412.777 777.464 412.344 777.903C411.916 778.343 411.397 778.562 410.788 778.562C410.173 778.562 409.646 778.343 409.206 777.903C408.767 777.464 408.547 776.934 408.547 776.312ZM410.788 777.438C411.104 777.438 411.371 777.335 411.588 777.13C411.805 776.919 411.913 776.646 411.913 776.312C411.913 775.973 411.805 775.694 411.588 775.478C411.371 775.255 411.104 775.144 410.788 775.144C410.466 775.144 410.193 775.261 409.971 775.495C409.754 775.724 409.646 775.996 409.646 776.312C409.646 776.629 409.754 776.896 409.971 777.112C410.193 777.329 410.466 777.438 410.788 777.438Z" fill="black"/>
        <path class="a24" d="M447.928 835.702H449.703V837.029H447.928V840H446.293V837.029H440.466V836.071L446.196 827.203H447.928V835.702ZM442.312 835.702H446.293V829.427L446.1 829.778L442.312 835.702ZM459.195 834.542C459.195 836.446 458.87 837.861 458.22 838.787C457.569 839.713 456.553 840.176 455.17 840.176C453.805 840.176 452.794 839.725 452.138 838.822C451.481 837.914 451.142 836.561 451.118 834.762V832.591C451.118 830.71 451.443 829.312 452.094 828.398C452.744 827.484 453.764 827.027 455.152 827.027C456.529 827.027 457.543 827.47 458.193 828.354C458.844 829.233 459.178 830.593 459.195 832.433V834.542ZM457.569 832.318C457.569 830.941 457.376 829.939 456.989 829.312C456.603 828.68 455.99 828.363 455.152 828.363C454.32 828.363 453.714 828.677 453.333 829.304C452.952 829.931 452.756 830.895 452.744 832.195V834.797C452.744 836.18 452.943 837.202 453.342 837.864C453.746 838.521 454.355 838.849 455.17 838.849C455.973 838.849 456.567 838.538 456.954 837.917C457.347 837.296 457.552 836.317 457.569 834.981V832.318ZM475.578 835.939C475.42 837.293 474.919 838.339 474.075 839.077C473.237 839.81 472.121 840.176 470.727 840.176C469.215 840.176 468.002 839.634 467.088 838.55C466.18 837.466 465.726 836.016 465.726 834.199V832.969C465.726 831.779 465.937 830.733 466.358 829.831C466.786 828.929 467.39 828.237 468.169 827.757C468.948 827.271 469.851 827.027 470.876 827.027C472.235 827.027 473.325 827.408 474.146 828.17C474.966 828.926 475.443 829.975 475.578 831.316H473.882C473.735 830.297 473.416 829.559 472.924 829.102C472.438 828.645 471.755 828.416 470.876 828.416C469.798 828.416 468.951 828.814 468.336 829.611C467.727 830.408 467.422 831.542 467.422 833.013V834.252C467.422 835.641 467.712 836.745 468.292 837.565C468.872 838.386 469.684 838.796 470.727 838.796C471.664 838.796 472.382 838.585 472.88 838.163C473.384 837.735 473.718 836.994 473.882 835.939H475.578ZM477.547 829.312C477.547 828.703 477.764 828.17 478.197 827.713C478.637 827.256 479.167 827.027 479.788 827.027C480.397 827.027 480.916 827.256 481.344 827.713C481.777 828.164 481.994 828.697 481.994 829.312C481.994 829.934 481.777 830.464 481.344 830.903C480.916 831.343 480.397 831.562 479.788 831.562C479.173 831.562 478.646 831.343 478.206 830.903C477.767 830.464 477.547 829.934 477.547 829.312ZM479.788 830.438C480.104 830.438 480.371 830.335 480.588 830.13C480.805 829.919 480.913 829.646 480.913 829.312C480.913 828.973 480.805 828.694 480.588 828.478C480.371 828.255 480.104 828.144 479.788 828.144C479.466 828.144 479.193 828.261 478.971 828.495C478.754 828.724 478.646 828.996 478.646 829.312C478.646 829.629 478.754 829.896 478.971 830.112C479.193 830.329 479.466 830.438 479.788 830.438Z" fill="black"/>
        <line class="a25" x1="392.5" y1="627.5" x2="392.5" y2="700.5" stroke="black" stroke-linecap="round"/>
        </svg>